<svg xmlns="http://www.w3.org/2000/svg" width="70" height="70" fill="none">
    <circle cx="35" cy="35" r="35" fill="#393"/>
    <g clip-path="url(#a)">
        <mask id="b" width="33" height="26" x="19" y="55" maskUnits="userSpaceOnUse" style="mask-type:alpha">
            <path fill="#fff" fill-rule="evenodd"
                  d="M46.932 60.236a7.574 7.574 0 0 0-6.855-4.347c-1.19 0-2.316.274-3.318.763a3.247 3.247 0 0 0-5.157 1.413 4.849 4.849 0 0 0-2.884 1.226 3.788 3.788 0 0 0-4.528 2.057A5.41 5.41 0 1 0 26.06 72c.484 4.926 4.637 8.774 9.69 8.774 4.652 0 8.541-3.262 9.507-7.623a5.95 5.95 0 0 0 4.43-10.595 3.249 3.249 0 0 0-2.755-2.319Z"
                  clip-rule="evenodd"/>
        </mask>
        <g mask="url(#b)">
            <circle cx="35" cy="35" r="35" fill="#fff"/>
        </g>
    </g>
    <path fill="#fff"
          d="M39.49 36.25c-.792.754-1.626 1.776-2.383 3.146-.75-2.696-1.693-4.673-2.647-6.12 4.378-14.587-16.96-15.11-16.96-15.11s.623 18.232 11.767 17.813c-.023-1.22-.212-2.455-.478-3.612a26.277 26.277 0 0 0-.593-2.139c-.713-2.203-1.517-3.766-1.517-3.766a58.928 58.928 0 0 1 2.167 3.103c2.186 3.355 3.38 5.964 3.934 7.342 1.37 2.933 2.6 7.759 2.6 15.644 0 .893.727 1.616 1.619 1.616.894 0 1.62-.723 1.62-1.616 0-2.556-.124-4.83-.347-6.858.516-2.476 1.295-4.233 2.102-5.477a34.767 34.767 0 0 1 2.823-4.497c1.172-1.568 2.617-3.166 4.252-4.306 0 0-3.352 3.7-3.569 7.323 9.26.482 9.62-14.046 9.62-14.046s-16.947.577-14.01 11.56Z"/>
    <defs>
        <clipPath id="a">
            <path fill="#fff" d="M17.5 55.833h35.833V72.5H17.5z"/>
        </clipPath>
    </defs>
</svg>